<?xml version="1.0" standalone="no"?><svg xmlns="http://www.w3.org/2000/svg" viewBox="0 0 1440 320"><path fill="rgb(1, 25, 54)" fill-opacity="1" d="M0,96L75.8,256L151.6,192L227.4,320L303.2,96L378.9,96L454.7,192L530.5,256L606.3,160L682.1,192L757.9,96L833.7,256L909.5,64L985.3,160L1061.1,64L1136.8,320L1212.6,160L1288.4,32L1364.2,256L1440,224L1440,0L1364.2,0L1288.4,0L1212.6,0L1136.8,0L1061.1,0L985.3,0L909.5,0L833.7,0L757.9,0L682.1,0L606.3,0L530.5,0L454.7,0L378.9,0L303.2,0L227.4,0L151.6,0L75.8,0L0,0Z"></path></svg>